<?xml version="1.0" encoding="utf-8"?>
<!-- Generator: Adobe Illustrator 16.0.0, SVG Export Plug-In . SVG Version: 6.00 Build 0)  -->
<!DOCTYPE svg PUBLIC "-//W3C//DTD SVG 1.1//EN" "http://www.w3.org/Graphics/SVG/1.1/DTD/svg11.dtd">
<svg version="1.1" id="Calque_1" xmlns="http://www.w3.org/2000/svg" xmlns:xlink="http://www.w3.org/1999/xlink" x="0px" y="0px"
	 width="512px" height="512px" viewBox="0 0 512 512" enable-background="new 0 0 512 512" xml:space="preserve">
<path fill-rule="evenodd" clip-rule="evenodd" fill="#FEFEFE" d="M123.91,335.471c28.944,1.713,55.283-5.228,79.239-23.465
	c-12.048-0.63-22.38-4.086-31.438-10.884c-9.121-6.845-15.569-15.657-19.291-26.926c8.043,1.185,15.719,1.285,23.61-0.957
	c-26.798-8.083-41.089-25.788-43.128-54.194c7.877,3.701,15.404,6.436,24.539,6.593c-11.779-8.737-19.413-19.492-22.407-33.119
	c-3.007-13.68-1.173-26.759,5.941-39.403c4.523,4.938,8.709,9.839,13.406,14.256c26.296,24.727,57.457,38.662,93.313,42.254
	c0.249,0.024,0.499,0.04,0.747,0.059c4.716,0.342,4.716,0.342,4.084-4.336c-3.154-23.357,8.467-45.751,29.256-56.375
	c20.652-10.554,45.49-6.96,62.438,9.199c1.683,1.605,3.062,1.919,5.213,1.422c10.885-2.512,21.115-6.64,31.464-12.511
	c-4.308,12.819-12.006,22.179-23.426,29.905c11.013-1.21,20.445-4.113,30.622-8.208c-4.974,7.479-10.169,13.405-15.916,18.871
	c-1.177,1.119-2.265,2.449-3.653,3.207c-6.505,3.552-7.418,9.003-7.539,16.051c-1.095,63.847-43.863,131.095-117.285,147.853
	c-41.013,9.361-80.063,3.854-116.618-17.448C126.023,336.698,124.966,336.085,123.91,335.471z"/>
</svg>
